<svg xmlns="http://www.w3.org/2000/svg" viewBox="0 0 32 32" role="img" aria-label="GitHub">
  <rect width="32" height="32" rx="7" fill="#24292f"/>
  <path fill="#fff" d="M16 7.2c-4.9 0-8.8 4-8.8 8.9 0 3.9 2.5 7.2 6 8.4.4.1.6-.2.6-.4v-1.5c-2.4.5-2.9-1.2-2.9-1.2-.4-1-.9-1.3-.9-1.3-.8-.5.1-.5.1-.5.9.1 1.4 1 1.4 1 .8 1.4 2.1 1 2.6.8.1-.6.3-1 .5-1.2-1.9-.2-3.9-1-3.9-4.3 0-.9.3-1.7.9-2.3-.1-.2-.4-1 .1-2.1 0 0 .7-.2 2.3.9.7-.2 1.4-.3 2.1-.3.7 0 1.4.1 2.1.3 1.6-1.1 2.3-.9 2.3-.9.5 1.1.2 1.9.1 2.1.6.6.9 1.4.9 2.3 0 3.3-2 4.1-3.9 4.3.3.3.6.8.6 1.6v2.4c0 .2.1.5.6.4 3.5-1.2 6-4.5 6-8.4 0-4.9-3.9-8.9-8.8-8.9z"/>
</svg>
